<svg xmlns="http://www.w3.org/2000/svg" viewBox="0 0 1200 675"><rect width="1200" height="675" fill="#e9edf2"/><rect y="390" width="1200" height="285" fill="#2c5870"/><g stroke="#235e84" stroke-width="18" fill="none"><path d="M80 400V150h300M390 400V170h280M690 400V190h250"/></g><g fill="#1b3140"><path d="M330 455h520l-50 105H390z"/></g><rect x="405" y="395" width="330" height="65" fill="#e8edf0"/><g fill="#9f3c2e"><rect x="420" y="405" width="70" height="24"/><rect x="570" y="405" width="70" height="24"/></g><g fill="#2f6380"><rect x="495" y="405" width="70" height="24"/><rect x="645" y="405" width="70" height="24"/></g><rect x="950" y="60" width="190" height="114" fill="#fff"/><rect x="950" y="60" width="190" height="38" fill="#ff9933"/><rect x="950" y="136" width="190" height="38" fill="#138808"/><circle cx="1045" cy="117" r="18" fill="none" stroke="#000080" stroke-width="3"/><g transform="translate(110 520)"><rect width="190" height="52" rx="7" fill="#f4f4f4"/><circle cx="45" cy="58" r="17" fill="#20272c"/><circle cx="150" cy="58" r="17" fill="#20272c"/></g></svg>